<svg width="163" height="32" viewBox="0 0 163 32" fill="none" xmlns="http://www.w3.org/2000/svg">
<path d="M37.4071 19.7854L35.5265 19.6212C34.0504 19.5041 33.4792 18.9172 33.4792 17.9311C33.4792 16.7577 34.3839 16.0296 36.098 16.0296C37.3122 16.0296 38.3833 16.3116 39.2174 16.9454L40.3365 15.842C39.2879 14.997 37.7888 14.5982 36.1226 14.5982C33.6229 14.5982 31.8133 15.8647 31.8133 17.9782C31.8133 19.8794 33.0278 20.8887 35.3131 21.0766L37.2414 21.2408C38.5983 21.3584 39.1936 21.9216 39.1936 22.9309C39.1936 24.2925 38.0032 24.9727 36.0741 24.9727C34.6216 24.9727 33.3599 24.5972 32.4304 23.6347L31.2875 24.7616C32.5733 25.982 34.1207 26.4282 36.0967 26.4282C38.9296 26.4282 40.8582 25.1358 40.8582 22.9073C40.8582 20.7471 39.4534 19.973 37.4058 19.7848L37.4071 19.7854ZM52.064 14.5977C50.1848 14.5977 49.001 14.9629 47.9637 16.2578C47.9495 16.2757 49.0882 17.3672 49.0882 17.3672C49.7785 16.4049 50.5402 16.0531 52.0399 16.0531C54.1826 16.0531 55.0398 16.8981 55.0398 18.5879V19.691H51.5172C48.8985 19.691 47.4703 21.0058 47.4703 23.0252C47.4428 23.8909 47.7588 24.733 48.3511 25.3726C49.0893 26.1239 50.0414 26.4289 51.6601 26.4289C53.2313 26.4289 54.0885 26.1239 55.0417 25.1847V26.2878H56.7558V18.4473C56.7558 15.9358 55.2092 14.5982 52.0659 14.5982L52.064 14.5977ZM55.0409 22.2041C55.0409 23.1668 54.8503 23.8241 54.4456 24.1994C53.7076 24.9037 52.8269 24.9748 51.8271 24.9748C49.9701 24.9748 49.1365 24.3408 49.1365 23.0027C49.1365 21.6647 49.9937 20.9609 51.7558 20.9609H55.0409V22.2041ZM63.4684 16.1015C64.5872 16.1015 65.2771 16.43 66.1584 17.3922C66.1584 17.3922 67.3061 16.2925 67.2966 16.2826C66.0947 15.0149 65.0745 14.5993 63.4694 14.5993C60.5172 14.5993 58.2791 16.5708 58.2791 20.5142C58.2791 24.4576 60.5167 26.4297 63.4694 26.4297C65.0881 26.4297 66.1118 26.0069 67.326 24.7161L66.1595 23.6127C65.2787 24.5752 64.5882 24.9272 63.4694 24.9272C62.3976 24.9695 61.3767 24.475 60.7555 23.6127C60.2079 22.8616 59.9937 21.9696 59.9937 20.5142C59.9937 19.0588 60.2079 18.1669 60.7555 17.4158C61.3765 16.5534 62.3976 16.0589 63.4694 16.1015H63.4684ZM78.1492 14.7228H76.0122L70.7013 19.8197L70.7094 9.57446H68.9948V26.2878H70.7092L70.701 22.0725L72.7801 20.0154L76.709 26.2878H78.8276L73.9675 18.844L78.1492 14.7228ZM86.0692 14.4385C84.3128 14.4385 83.1261 15.1134 82.3958 15.8782C81.3234 16.9805 81.0497 18.3077 81.0497 20.4225C81.0497 22.5595 81.3234 23.8859 82.3958 24.9893C83.1261 25.7541 84.3123 26.4292 86.0692 26.4292C87.826 26.4292 89.0355 25.7541 89.7653 24.9893C90.8377 23.8869 91.1117 22.5597 91.1117 20.4225C91.1117 18.308 90.8377 16.9805 89.7653 15.8782C89.0355 15.1134 87.8255 14.4385 86.0692 14.4385ZM87.4611 23.2795C87.0892 23.6337 86.5856 23.8207 86.0692 23.7965C85.5596 23.8208 85.063 23.6333 84.7003 23.2795C84.084 22.6721 84.0158 21.6375 84.0158 20.4225C84.0158 19.2074 84.084 18.1955 84.7003 17.5882C85.063 17.2344 85.5596 17.0468 86.0692 17.0712C86.5856 17.0468 87.0893 17.2339 87.4611 17.5882C88.0769 18.1955 88.1456 19.2077 88.1456 20.4225C88.1456 21.6373 88.0769 22.6711 87.4611 23.2795ZM99.0096 14.5729L96.6142 21.8164L94.1957 14.5724H91.0695L95.4506 26.293H97.7776L102.135 14.5724L99.0096 14.5729ZM107.181 14.438C104.101 14.438 102.002 16.5975 102.002 20.422C102.002 25.1689 104.695 26.4287 107.501 26.4287C109.646 26.4287 110.81 25.776 112.019 24.5835L110.216 22.8518C109.463 23.5943 108.824 23.9541 107.524 23.9541C105.858 23.9541 104.923 22.8518 104.923 21.3436H112.361V20.0397C112.361 16.8226 110.49 14.438 107.181 14.438ZM104.923 19.3421C104.927 18.9083 105.02 18.4798 105.197 18.0823C105.57 17.3384 106.34 16.8678 107.182 16.8678C108.024 16.8678 108.793 17.3384 109.167 18.0823C109.343 18.48 109.436 18.9083 109.44 19.3421H104.923ZM116.736 15.6977V14.5729H113.838V26.2935H116.804V19.2299C116.804 17.745 117.808 17.0699 118.721 17.0699C119.322 17.0494 119.9 17.3037 120.286 17.759L122.531 15.5403C121.71 14.7303 120.888 14.438 119.725 14.438C118.593 14.4248 117.509 14.8821 116.736 15.6977H116.736ZM123.452 13.3511V26.2816H126.418V17.0405H128.608V14.8135H126.418V13.5313C126.418 12.8564 126.76 12.4739 127.466 12.4739H128.607V9.99964H126.919C124.5 9.99964 123.451 11.6866 123.451 13.3511H123.452ZM140.818 14.4367C139.062 14.4367 137.875 15.1115 137.145 15.8763C136.073 16.9787 135.799 18.3059 135.799 20.4207C135.799 22.5576 136.073 23.8841 137.145 24.9875C137.875 25.7523 139.061 26.4274 140.818 26.4274C142.575 26.4274 143.785 25.7523 144.515 24.9875C145.587 23.8851 145.861 22.5579 145.861 20.4207C145.861 18.3062 145.587 16.9787 144.515 15.8763C143.784 15.1115 142.575 14.4367 140.818 14.4367ZM142.21 23.2777C141.838 23.6319 141.335 23.8189 140.818 23.7947C140.309 23.819 139.812 23.6314 139.449 23.2777C138.833 22.6703 138.765 21.6357 138.765 20.4207C138.765 19.2056 138.833 18.1937 139.449 17.5863C139.812 17.2325 140.309 17.045 140.818 17.0694C141.335 17.045 141.838 17.2321 142.21 17.5863C142.826 18.1937 142.895 19.2059 142.895 20.4207C142.895 21.6354 142.826 22.6693 142.21 23.2777ZM159.874 14.5716L157.957 21.8164L155.516 14.5729H153.349L150.93 21.8164L149.014 14.5724H145.865L149.516 26.293H151.957L154.444 18.9371L156.931 26.293H159.372L163 14.5724L159.874 14.5716ZM132.983 22.7616V9.99964H130.018V22.9415C130.018 24.6062 131.045 26.2935 133.486 26.2935H135.174V23.8187H134.033C133.281 23.8187 132.985 23.4589 132.985 22.7616H132.983ZM45.612 16.5556L47.1969 14.9929H43.9516V11.1935H42.2375V23.1893C42.2375 24.9027 43.2373 26.2878 45.2372 26.2878H46.4509V24.8324H45.5465C44.4515 24.8324 43.9516 24.1984 43.9516 23.1423V16.5556H45.612Z" fill="white"/>
<path fill-rule="evenodd" clip-rule="evenodd" d="M23.0682 20.6274H25.9517V31.9999H0V20.6274H2.88352V29.1568H23.0682V20.6274Z" fill="#BBBBBB"/>
<path d="M6.02593 19.7824L20.188 22.7172L20.7833 19.9258L6.62125 16.9896L6.02593 19.7824ZM7.89996 13.0961L21.0189 19.1204L22.241 16.5335L9.12179 10.5092L7.89996 13.0961ZM11.5301 6.75006L22.6521 15.8819L24.5043 13.6888L13.3823 4.55724L11.5301 6.75006ZM18.7092 0L16.3867 1.70328L25.0236 13.1533L27.3462 11.4502L18.7092 0ZM5.76697 26.3137H20.1846V23.4706H5.76697V26.3137Z" fill="#F58025"/>
</svg>
