<svg width="35" height="31" viewBox="0 0 35 31" fill="none" xmlns="http://www.w3.org/2000/svg">
<path d="M29.3046 26.1969H24.2086V19.0626C24.2086 17.3614 24.1747 15.1713 21.5582 15.1713C18.904 15.1713 18.4979 17.0249 18.4979 18.9387V26.1964H13.4019V11.5254H18.2941V13.5304H18.3626C18.8522 12.782 19.5596 12.1664 20.4096 11.7491C21.2596 11.3318 22.2204 11.1283 23.1894 11.1605C28.3545 11.1605 29.3068 14.1976 29.3068 18.1486L29.3046 26.1969ZM7.65195 9.52001C7.06706 9.5201 6.49525 9.36514 6.00887 9.07473C5.52249 8.78432 5.1434 8.37149 4.91947 7.88846C4.69555 7.40542 4.63686 6.87388 4.75087 6.36103C4.86487 5.84819 5.14644 5.37709 5.55995 5.0073C5.97345 4.63751 6.50034 4.38564 7.07397 4.28354C7.64761 4.18144 8.24222 4.2337 8.78263 4.4337C9.32304 4.63371 9.78496 4.97248 10.11 5.40718C10.435 5.84188 10.6086 6.35298 10.6087 6.87585C10.6088 7.22302 10.5323 7.56681 10.3838 7.88758C10.2352 8.20835 10.0175 8.49982 9.74291 8.74535C9.46836 8.99089 9.14236 9.18567 8.7836 9.31858C8.42483 9.4515 8.0403 9.51994 7.65195 9.52001ZM10.1999 26.1969H5.09864V11.5254H10.1999V26.1969ZM31.8452 0.00209471H2.53792C1.87272 -0.00461597 1.23173 0.225033 0.755848 0.640577C0.279964 1.05612 0.00811831 1.62356 0 2.21821V28.5264C0.00784046 29.1213 0.279526 29.6892 0.755394 30.1052C1.23126 30.5211 1.87239 30.7512 2.53792 30.7449H31.8452C32.512 30.7524 33.155 30.5229 33.6327 30.107C34.1105 29.691 34.384 29.1225 34.3932 28.5264V2.21631C34.3837 1.62048 34.11 1.0524 33.6322 0.636864C33.1545 0.22133 32.5117 -0.00766248 31.8452 0.000195772" fill="white"/>
</svg>
