<svg width="184" height="48" viewBox="0 0 184 48" fill="none" xmlns="http://www.w3.org/2000/svg">
<path d="M23.0164 18.6295V23.0091H37.8785C37.4839 25.4318 36.3002 27.2955 34.4589 28.5068C32.3545 29.9977 28.935 31.675 23.0164 31.675C13.9414 31.675 6.83917 26.4568 6.83917 20.0273C6.83917 13.5977 13.8099 8.37955 23.0164 8.37955C27.8828 8.37955 31.5654 9.77727 34.1959 11.5477L38.5361 8.47273C34.8535 5.95682 29.8556 4 23.0164 4C10.5218 4 0 11.175 0 20.0273C0 28.8795 10.5218 36.0545 23.0164 36.0545C29.7241 36.0545 34.8535 34.4705 38.7991 31.5818C42.8763 28.6932 44.1916 24.5932 44.1916 21.3318C44.1916 20.3068 44.06 19.375 43.9285 18.6295H23.0164Z" fill="white"/>
<path d="M62.6045 14.9956C54.5817 14.9956 47.874 19.3752 47.874 25.3388C47.874 31.3024 54.4501 35.682 62.6045 35.682C70.7589 35.682 77.3351 31.3956 77.3351 25.432C77.3351 19.3752 70.7589 14.9956 62.6045 14.9956ZM62.6045 31.6752C58.1328 31.6752 54.3186 29.0661 54.3186 25.432C54.3186 21.7047 58.1328 19.1888 62.6045 19.1888C67.0763 19.1888 70.8905 21.7047 70.8905 25.432C70.8905 29.0661 67.0763 31.6752 62.6045 31.6752Z" fill="white"/>
<path d="M134.547 17.3252H134.284C132.838 16.1138 130.076 14.9956 126.525 14.9956C119.159 14.9956 112.846 19.4683 112.846 25.3388C112.846 31.1161 119.159 35.682 126.525 35.682C130.076 35.682 132.838 34.5638 134.284 33.3524H134.547V34.8433C134.547 38.757 131.522 40.9001 126.788 40.9001C122.842 40.9001 120.474 38.9433 119.422 37.1729L113.898 38.8502C115.477 41.5524 119.817 45.0002 126.919 45.0002C134.416 45.0002 140.86 41.832 140.86 34.1911V15.5547H134.81V17.3252H134.547ZM127.182 31.6752C122.71 31.6752 119.422 28.9729 119.422 25.432C119.422 21.7979 122.842 19.1888 127.182 19.1888C131.522 19.1888 134.942 21.8911 134.942 25.5251C135.073 29.0661 131.654 31.6752 127.182 31.6752Z" fill="white"/>
<path d="M95.3539 14.9956C87.3311 14.9956 80.6234 19.3752 80.6234 25.3388C80.6234 31.3024 87.1995 35.682 95.3539 35.682C103.508 35.682 110.084 31.3956 110.084 25.432C110.084 19.3752 103.508 14.9956 95.3539 14.9956ZM95.3539 31.6752C90.8822 31.6752 87.068 29.0661 87.068 25.432C87.068 21.7047 90.8822 19.1888 95.3539 19.1888C99.8257 19.1888 103.64 21.7047 103.64 25.432C103.64 29.0661 99.8257 31.6752 95.3539 31.6752Z" fill="white"/>
<path d="M145.727 4.46582H152.04V35.7749H145.727V4.46582Z" fill="white"/>
<path d="M171.505 31.6752C168.217 31.6752 165.981 30.6502 164.403 28.507L184 22.8229L183.342 21.6115C182.159 19.282 178.344 14.9956 170.848 14.9956C163.351 14.9956 157.038 19.1888 157.038 25.3388C157.038 31.1161 163.219 35.682 171.505 35.682C178.213 35.682 182.027 32.7933 183.737 31.1161L178.739 28.7865C177.029 30.557 174.793 31.6752 171.505 31.6752ZM171.111 18.9092C173.741 18.9092 175.977 19.8411 176.635 21.1456L163.482 25.0592C163.351 20.7729 167.823 18.9092 171.111 18.9092Z" fill="white"/>
</svg>
