<svg width="116" height="21" viewBox="0 0 116 21" fill="none" xmlns="http://www.w3.org/2000/svg">
<path d="M12.4768 13.279L11.5232 15.6511H11.4437C11.2848 15.1162 10.9934 14.3022 10.5165 13.3255L5.40396 2.04641H0.397339V20.0232H3.7086V8.93013C3.7086 8.23246 3.7086 7.44176 3.68211 6.46501C3.65562 5.97664 3.60264 5.60455 3.57615 5.32548H3.65561C3.81455 6.02315 3.99999 6.53478 4.13244 6.86036L10.2781 19.9766H12.6093L18.702 6.74408C18.8344 6.44176 18.9669 5.83711 19.0993 5.32548H19.1788C19.0993 6.65106 19.0463 7.83711 19.0199 8.55804V19.9534H22.543V1.9999H17.7218L12.4768 13.279V13.279ZM25.8808 7.06966H29.3245V19.9534H25.8808V7.06966ZM27.6291 1.6278C27.0463 1.6278 26.5695 1.81385 26.1722 2.13943C25.7748 2.46501 25.5629 2.88362 25.5629 3.39525C25.5629 3.88362 25.7748 4.30222 26.1722 4.6278C26.5695 4.95339 27.0463 5.11618 27.6291 5.11618C28.2119 5.11618 28.7152 4.93013 29.0861 4.6278C29.4834 4.30222 29.6954 3.88362 29.6954 3.39525C29.6954 2.90687 29.4834 2.48827 29.0861 2.13943C28.7417 1.81385 28.2384 1.6278 27.6291 1.6278M41.5364 6.95339C40.9006 6.83711 40.2384 6.76734 39.6026 6.76734C38.0397 6.76734 36.6093 7.06967 35.4172 7.67432C34.2251 8.27897 33.2715 9.11618 32.6622 10.1627C32.0265 11.2325 31.7086 12.465 31.7086 13.8836C31.7086 15.1162 32.0265 16.2092 32.6357 17.2092C33.245 18.1859 34.0927 18.9766 35.2318 19.5115C36.3179 20.0464 37.5894 20.3255 39.0199 20.3255C40.6622 20.3255 42.0662 20.0232 43.1788 19.465L43.2053 19.4418V16.6511L43.0728 16.7441C42.5695 17.0697 41.9867 17.3487 41.404 17.5115C40.7947 17.6976 40.2384 17.7906 39.7616 17.7906C38.3841 17.7906 37.298 17.4418 36.5298 16.6743C35.7351 15.9301 35.3377 14.9069 35.3377 13.6278C35.3377 12.3022 35.7351 11.2557 36.5563 10.4883C37.3775 9.72083 38.4636 9.32548 39.7881 9.32548C40.9006 9.32548 42.0397 9.65106 43.0728 10.3022L43.2053 10.3952V7.44176L43.1788 7.4185C42.7285 7.25571 42.2251 7.06966 41.5364 6.95339M52.9006 6.86036C52.053 6.86036 51.2583 7.09292 50.5695 7.58129C49.9867 7.9999 49.5894 8.60455 49.245 9.32548H49.2185V7.06966H45.7748V19.9534H49.2185V13.372C49.2185 12.2557 49.4834 11.3255 50.0662 10.6511C50.649 9.95339 51.3907 9.60455 52.2914 9.60455C52.6093 9.60455 52.9271 9.67432 53.3245 9.72083C53.6953 9.81385 53.9602 9.90687 54.1457 10.0232L54.2781 10.1162V7.09292L54.1987 7.06966C53.9603 6.93013 53.4834 6.86036 52.9006 6.86036M62.2781 6.7906C59.8675 6.7906 57.9338 7.4185 56.5828 8.65106C55.2053 9.88362 54.543 11.5813 54.543 13.7208C54.543 15.7208 55.2318 17.3487 56.5563 18.5348C57.8808 19.6976 59.6821 20.3022 61.9338 20.3022C64.2914 20.3022 66.1722 19.6743 67.5232 18.4185C68.9006 17.1627 69.5629 15.4883 69.5629 13.4185C69.5629 11.372 68.9271 9.74408 67.6291 8.55804C66.3841 7.37199 64.5563 6.7906 62.2781 6.7906M65.0331 16.6976C64.3973 17.4185 63.3907 17.7673 62.1457 17.7673C60.9007 17.7673 59.894 17.4185 59.1788 16.6511C58.4636 15.9301 58.1192 14.8836 58.1192 13.558C58.1192 12.1859 58.4901 11.1394 59.1788 10.3952C59.894 9.65106 60.8742 9.27897 62.1192 9.27897C63.3377 9.27897 64.2914 9.6278 64.9801 10.3487C65.6689 11.0697 66.0397 12.1162 66.0397 13.4883C65.9867 14.8836 65.6954 15.9766 65.0331 16.6976M77.245 12.4185C76.1589 12.0232 75.4702 11.7208 75.1523 11.465C74.8874 11.2325 74.7549 10.9069 74.7549 10.4883C74.7549 10.1394 74.9139 9.7906 75.3112 9.55804C75.7086 9.32548 76.1589 9.2092 76.8212 9.2092C77.404 9.2092 78.0132 9.30222 78.596 9.44176C79.1788 9.58129 79.7086 9.7906 80.1324 10.0697L80.2649 10.1627V7.32548L80.1854 7.30222C79.7881 7.16269 79.2583 7.02315 78.6225 6.90687C77.9867 6.81385 77.404 6.76734 76.9271 6.76734C75.2848 6.76734 73.9338 7.11618 72.8742 7.88362C71.8146 8.60455 71.3112 9.58129 71.3112 10.7208C71.3112 11.3255 71.4172 11.8604 71.6556 12.3022C71.894 12.7441 72.2384 13.1627 72.7152 13.5115C73.192 13.8371 73.8808 14.2092 74.8344 14.558C75.6291 14.8604 76.2384 15.0929 76.6093 15.279C76.9801 15.465 77.2185 15.6743 77.404 15.8371C77.5364 16.0232 77.6159 16.2557 77.6159 16.558C77.6159 17.4185 76.8742 17.8371 75.3642 17.8371C74.7814 17.8371 74.1722 17.7441 73.4569 17.5348C72.7417 17.3255 72.0795 17.0232 71.5232 16.6743L71.3907 16.5813V19.5348L71.4702 19.558C71.9735 19.7673 72.5828 19.9069 73.3245 20.0697C74.0662 20.1859 74.7285 20.279 75.3112 20.279C77.0861 20.279 78.543 19.9301 79.5761 19.1627C80.6357 18.4185 81.192 17.465 81.192 16.2325C81.192 15.372 80.9271 14.6045 80.3444 14.0232C79.5761 13.465 78.6225 12.8836 77.245 12.4185M90.2781 6.7906C87.8675 6.7906 85.9338 7.4185 84.5828 8.65106C83.2318 9.88362 82.543 11.5813 82.543 13.7208C82.543 15.7208 83.2318 17.3487 84.5563 18.5348C85.8808 19.6976 87.6821 20.3022 89.9338 20.3022C92.2914 20.3022 94.1722 19.6743 95.5232 18.4185C96.9006 17.1627 97.5629 15.4883 97.5629 13.4185C97.5629 11.372 96.9271 9.74408 95.6291 8.55804C94.3841 7.37199 92.5563 6.7906 90.2781 6.7906M93.0066 16.6976C92.3708 17.4185 91.3642 17.7673 90.1192 17.7673C88.8477 17.7673 87.8675 17.4185 87.1523 16.6511C86.4371 15.9301 86.0927 14.8836 86.0927 13.558C86.0927 12.1859 86.4636 11.1394 87.1523 10.3952C87.8675 9.65106 88.8477 9.27897 90.0927 9.27897C91.2848 9.27897 92.2649 9.6278 92.9536 10.3487C93.6424 11.0697 94.0132 12.1162 94.0132 13.4883C94.0132 14.8836 93.6689 15.9766 93.0066 16.6976M115.973 9.55804V7.06966H112.503V3.25571L112.397 3.27897L109.113 4.13943L109.033 4.16269V7.06966H103.841V5.44176C103.841 4.69757 104.053 4.11618 104.424 3.74408C104.795 3.37199 105.351 3.18594 106.04 3.18594C106.517 3.18594 107.02 3.27897 107.576 3.48827L107.709 3.55804V0.93013L107.629 0.906875C107.152 0.76734 106.517 0.674316 105.695 0.674316C104.662 0.674316 103.762 0.883619 102.94 1.23246C102.119 1.6278 101.51 2.16269 101.06 2.88362C100.609 3.58129 100.371 4.37199 100.371 5.27897V7.06966H97.9603V9.53478H100.371V19.9534H103.841V9.55804H109.033V16.1859C109.033 18.9069 110.49 20.279 113.404 20.279C113.881 20.279 114.384 20.2092 114.861 20.1394C115.364 20.0464 115.735 19.9301 115.947 19.8371L115.973 19.8139V17.3255L115.841 17.4185C115.629 17.5348 115.444 17.6278 115.126 17.6976C114.861 17.7673 114.622 17.7906 114.437 17.7906C113.748 17.7906 113.272 17.6511 112.927 17.3022C112.609 16.9766 112.45 16.4418 112.45 15.6511V9.55804H115.973V9.55804Z" fill="white"/>
</svg>
